<svg viewBox="0 0 100 100" xmlns="http://www.w3.org/2000/svg">
  <g fill="none" stroke="fuchsia" stroke-width="1">
    <path d="M50,50 m0,-45 a45,45 0 1,1 -0.01,0.01" />
    <path d="M50,50 m0,-40 a40,40 0 1,1 -0.01,0.01" />
    <path d="M50,50 m0,-35 a35,35 0 1,1 -0.01,0.01" />
    <path d="M50,50 m0,-30 a30,30 0 1,1 -0.01,0.01" />
    <path d="M50,50 m0,-25 a25,25 0 1,1 -0.01,0.01" />
    <path d="M50,50 m0,-20 a20,20 0 1,1 -0.01,0.01" />
    <path d="M50,50 m0,-15 a15,15 0 1,1 -0.01,0.01" />
    <path d="M50,50 m0,-10 a10,10 0 1,1 -0.01,0.01" />
  </g>
</svg>
