<svg xmlns="http://www.w3.org/2000/svg" viewBox="0 0 500 500">
  <g fill="none" stroke="fuchsia" stroke-width="4">
    <path d="M250,250 m0,-200 a200,200 0 1,1 -0.1,0 z"/>
    <path d="M250,250 m0,-180 a180,180 0 1,1 -0.1,0 z"/>
    <path d="M250,250 m0,-160 a160,160 0 1,1 -0.1,0 z"/>
    <path d="M250,250 m0,-140 a140,140 0 1,1 -0.1,0 z"/>
    <path d="M250,250 m0,-120 a120,120 0 1,1 -0.1,0 z"/>
    <path d="M250,250 m0,-100 a100,100 0 1,1 -0.1,0 z"/>
    <path d="M250,250 m0,-80 a80,80 0 1,1 -0.1,0 z"/>
    <path d="M250,250 m0,-60 a60,60 0 1,1 -0.1,0 z"/>
    <path d="M250,250 m0,-40 a40,40 0 1,1 -0.1,0 z"/>
    <path d="M250,250 m0,-20 a20,20 0 1,1 -0.1,0 z"/>
  </g>
</svg>
